<svg width="25" height="25" viewBox="0 0 25 25" fill="none" xmlns="http://www.w3.org/2000/svg">
<mask id="mask0_211_3560" style="mask-type:alpha" maskUnits="userSpaceOnUse" x="0" y="0" width="25" height="25">
<rect x="0.894531" y="0.628906" width="24" height="24" fill="#D9D9D9"/>
</mask>
<g mask="url(#mask0_211_3560)">
<path d="M8.06467 22.6039C7.56817 22.6039 7.14492 22.4272 6.79492 22.0737C6.44492 21.7202 6.26992 21.2952 6.26992 20.7987C6.26992 20.3022 6.44667 19.8789 6.80017 19.5289C7.15367 19.1789 7.57867 19.0039 8.07517 19.0039C8.57167 19.0039 8.99492 19.1807 9.34492 19.5342C9.69492 19.8877 9.86992 20.3127 9.86992 20.8092C9.86992 21.3057 9.69317 21.7289 9.33967 22.0789C8.98617 22.4289 8.56117 22.6039 8.06467 22.6039ZM18.0647 22.6039C17.5682 22.6039 17.1449 22.4272 16.7949 22.0737C16.4449 21.7202 16.2699 21.2952 16.2699 20.7987C16.2699 20.3022 16.4467 19.8789 16.8002 19.5289C17.1537 19.1789 17.5787 19.0039 18.0752 19.0039C18.5717 19.0039 18.9949 19.1807 19.3449 19.5342C19.6949 19.8877 19.8699 20.3127 19.8699 20.8092C19.8699 21.3057 19.6932 21.7289 19.3397 22.0789C18.9862 22.4289 18.5612 22.6039 18.0647 22.6039ZM6.76992 6.10391L9.51992 11.8039H16.7199L19.8449 6.10391H6.76992ZM6.01992 4.60391H20.7467C21.1295 4.60391 21.4208 4.77891 21.6204 5.12891C21.8201 5.47891 21.8199 5.82891 21.6199 6.17891L18.2449 12.2539C18.0616 12.5706 17.8236 12.8247 17.5309 13.0164C17.2383 13.2081 16.9179 13.3039 16.5699 13.3039H8.99492L7.59492 15.9039H19.8699V17.4039H7.81992C7.11992 17.4039 6.61576 17.1706 6.30742 16.7039C5.99909 16.2372 6.00326 15.7122 6.31992 15.1289L7.91992 12.1789L4.11992 4.12891H2.16992V2.62891H5.09492L6.01992 4.60391Z" fill="#F4F4F4"/>
</g>
</svg>
