<svg width="39" height="39" viewBox="0 0 39 39" fill="none" xmlns="http://www.w3.org/2000/svg">
<g clip-path="url(#clip0_211_3585)">
<path d="M31.5143 25.4989C30.5929 25.4989 29.7176 25.8598 29.0573 26.5124C28.397 27.1727 28.0285 28.0327 28.0285 28.9541C28.0285 29.8754 28.3893 30.7354 29.0573 31.3957C29.7253 32.0483 30.5929 32.4092 31.5143 32.4092C33.4031 32.4092 34.9387 30.8582 34.9387 28.9541C34.9387 27.0499 33.4031 25.4989 31.5143 25.4989ZM31.5143 30.8736C30.4547 30.8736 29.5641 29.9983 29.5641 28.9541C29.5641 27.9098 30.4547 27.0345 31.5143 27.0345C32.5585 27.0345 33.4031 27.8945 33.4031 28.9541C33.4031 30.0136 32.5585 30.8736 31.5143 30.8736ZM32.4049 13.9896C32.2667 13.859 32.0825 13.7899 31.8905 13.7899H27.9517C27.5294 13.7899 27.1839 14.1355 27.1839 14.5577V20.8537C27.1839 21.276 27.5294 21.6215 27.9517 21.6215H34.2016C34.6239 21.6215 34.9694 21.276 34.9694 20.8537V16.6385C34.9694 16.4235 34.8773 16.2162 34.716 16.0703L32.4049 13.9896ZM33.4338 20.0859H28.7195V15.3179H31.5911L33.4338 16.9763V20.0859ZM12.7645 25.4989C11.8432 25.4989 10.9679 25.8598 10.3076 26.5124C9.64727 27.1727 9.27872 28.0327 9.27872 28.9541C9.27872 29.8754 9.63959 30.7354 10.3076 31.3957C10.9756 32.0483 11.8432 32.4092 12.7645 32.4092C14.6533 32.4092 16.1889 30.8582 16.1889 28.9541C16.1889 27.0499 14.6533 25.4989 12.7645 25.4989ZM12.7645 30.8736C11.705 30.8736 10.8143 29.9983 10.8143 28.9541C10.8143 27.9098 11.705 27.0345 12.7645 27.0345C13.8088 27.0345 14.6533 27.8945 14.6533 28.9541C14.6533 30.0136 13.8088 30.8736 12.7645 30.8736ZM7.6433 26.4433H6.10002V24.401C6.10002 23.9787 5.75451 23.6332 5.33222 23.6332C4.90993 23.6332 4.56442 23.9787 4.56442 24.401V27.2111C4.56442 27.6334 4.90993 27.9789 5.33222 27.9789H7.6433C8.0656 27.9789 8.41111 27.6334 8.41111 27.2111C8.41111 26.7888 8.0656 26.4433 7.6433 26.4433ZM11.5361 22.2588C11.5361 21.8365 11.1906 21.491 10.7683 21.491H1.45481C1.03252 21.491 0.687012 21.8365 0.687012 22.2588C0.687012 22.6811 1.03252 23.0266 1.45481 23.0266H10.7683C11.1906 23.0266 11.5361 22.6888 11.5361 22.2588ZM3.01345 19.487L12.3269 19.5408C12.7492 19.5408 13.0947 19.203 13.1024 18.7807C13.1101 18.3507 12.7645 18.0052 12.3423 18.0052L3.02881 17.9514C3.02113 17.9514 3.02113 17.9514 3.02113 17.9514C2.59884 17.9514 2.25333 18.2893 2.25333 18.7116C2.24565 19.1415 2.59116 19.487 3.01345 19.487ZM4.57977 16.0012H13.8932C14.3155 16.0012 14.661 15.6557 14.661 15.2334C14.661 14.8111 14.3155 14.4656 13.8932 14.4656H4.57977C4.15748 14.4656 3.81197 14.8111 3.81197 15.2334C3.81197 15.6557 4.15748 16.0012 4.57977 16.0012ZM38.1097 14.9647L32.6122 10.4116C32.474 10.2964 32.3051 10.235 32.1209 10.235H25.656V7.47093C25.656 7.04864 25.3104 6.70312 24.8882 6.70312H5.33222C4.90993 6.70312 4.56442 7.04864 4.56442 7.47093V13.0912C4.56442 13.5135 4.90993 13.859 5.33222 13.859C5.75451 13.859 6.10002 13.5135 6.10002 13.0912V8.23873H24.128V26.4433H17.832C17.4098 26.4433 17.0642 26.7888 17.0642 27.2111C17.0642 27.6334 17.4098 27.9789 17.832 27.9789H27.2069C27.6292 27.9789 27.9747 27.6334 27.9747 27.2111C27.9747 26.7888 27.6292 26.4433 27.2069 26.4433H25.6636V11.7706H31.8521L36.8582 15.9168L36.8045 26.428H36.0059C35.5836 26.428 35.2381 26.7735 35.2381 27.1958C35.2381 27.6181 35.5836 27.9636 36.0059 27.9636H37.5646C37.9869 27.9636 38.3324 27.6258 38.3324 27.2035L38.3938 15.5636C38.3861 15.3332 38.2863 15.1106 38.1097 14.9647Z" fill="#F8F8FF"/>
</g>
<defs>
<clipPath id="clip0_211_3585">
<rect width="37.7068" height="37.7068" fill="white" transform="translate(0.687012 0.703125)"/>
</clipPath>
</defs>
</svg>
