<svg width="31" height="31" viewBox="0 0 31 31" fill="none" xmlns="http://www.w3.org/2000/svg">
<g clip-path="url(#clip0_211_3593)">
<path d="M25.413 11.9431V10.7834C25.413 8.00768 24.4307 5.42841 22.6499 3.51455C20.8248 1.54999 18.3152 0.472656 15.5775 0.472656H14.6206C11.8829 0.472656 9.37334 1.54999 7.5482 3.51455C5.76743 5.42841 4.78515 8.00768 4.78515 10.7834V11.9431C2.62414 12.0889 0.906738 13.8887 0.906738 16.0877V17.9002C0.906738 20.1879 2.7699 22.0511 5.05765 22.0511H7.39611C7.81437 22.0511 8.15658 21.7089 8.15658 21.2906V12.6909C8.15658 12.2727 7.81437 11.9305 7.39611 11.9305H6.3061V10.7834C6.3061 5.77062 9.88032 1.9936 14.6143 1.9936H15.5712C20.3115 1.9936 23.8794 5.77062 23.8794 10.7834V11.9305H22.7894C22.3711 11.9305 22.0289 12.2727 22.0289 12.6909V21.2843C22.0289 21.7025 22.3711 22.0447 22.7894 22.0447H23.854C23.5435 26.0119 20.8121 26.9308 19.5447 27.1399C19.1961 26.0689 18.1885 25.2958 17.0034 25.2958H15.1022C13.632 25.2958 12.4342 26.4935 12.4342 27.9638C12.4342 29.434 13.632 30.6381 15.1022 30.6381H17.0098C18.2392 30.6381 19.2722 29.8016 19.5827 28.6735C20.2037 28.5848 21.186 28.363 22.162 27.7927C23.5372 26.9878 25.1658 25.3465 25.3813 22.0384C27.555 21.9053 29.2787 20.0992 29.2787 17.8938V16.0814C29.2851 13.8887 27.574 12.0825 25.413 11.9431ZM6.64831 20.5238H5.07033C3.61909 20.5238 2.44036 19.3451 2.44036 17.8938V16.0814C2.44036 14.6301 3.61909 13.4514 5.07033 13.4514H6.64831V20.5238ZM17.0098 29.1171H15.1022C14.4685 29.1171 13.9552 28.6038 13.9552 27.9701C13.9552 27.3364 14.4685 26.8231 15.1022 26.8231H17.0098C17.6435 26.8231 18.1568 27.3364 18.1568 27.9701C18.1568 28.6038 17.6435 29.1171 17.0098 29.1171ZM27.7641 17.8938C27.7641 19.3451 26.5854 20.5238 25.1341 20.5238H23.5562V13.4514H25.1341C26.5854 13.4514 27.7641 14.6301 27.7641 16.0814V17.8938Z" fill="#F8F8F8"/>
</g>
<defs>
<clipPath id="clip0_211_3593">
<rect width="30.1654" height="30.1654" fill="white" transform="translate(0.0102539 0.472656)"/>
</clipPath>
</defs>
</svg>
