<svg width="31" height="31" viewBox="0 0 31 31" fill="none" xmlns="http://www.w3.org/2000/svg">
<g clip-path="url(#clip0_211_3615)">
<path d="M29.128 7.58426C29.128 7.46966 29.1025 7.35506 29.0516 7.24683C28.9497 7.03036 28.7523 6.88393 28.5359 6.83936L15.5669 0.549057C15.3568 0.447189 15.1085 0.447189 14.8984 0.549057L1.80208 6.89666C1.54741 7.01763 1.38187 7.27229 1.36914 7.5588V7.56516C1.36914 7.57153 1.36914 7.5779 1.36914 7.59063V23.5201C1.36914 23.813 1.53467 24.0804 1.80208 24.2077L14.8984 30.5553C14.9048 30.5553 14.9048 30.5553 14.9111 30.5617C14.9302 30.5681 14.9493 30.5744 14.9684 30.5872C14.9748 30.5872 14.9812 30.5935 14.9939 30.5935C15.013 30.5999 15.0321 30.6063 15.0512 30.6126C15.0576 30.6126 15.0639 30.619 15.0703 30.619C15.0894 30.6254 15.1149 30.6254 15.134 30.6317C15.1403 30.6317 15.1467 30.6317 15.1531 30.6317C15.1785 30.6317 15.2104 30.6381 15.2358 30.6381C15.2613 30.6381 15.2931 30.6381 15.3186 30.6317C15.325 30.6317 15.3313 30.6317 15.3377 30.6317C15.3568 30.6317 15.3823 30.6254 15.4014 30.619C15.4077 30.619 15.4141 30.6126 15.4205 30.6126C15.4396 30.6063 15.4587 30.5999 15.4778 30.5935C15.4841 30.5935 15.4905 30.5872 15.5032 30.5872C15.5223 30.5808 15.5414 30.5744 15.5605 30.5617C15.5669 30.5617 15.5669 30.5617 15.5733 30.5553L28.7078 24.1886C28.9688 24.0613 29.1407 23.7939 29.1407 23.501V7.60336C29.128 7.597 29.128 7.59063 29.128 7.58426ZM15.2295 2.08343L26.5877 7.59063L22.4047 9.62161L11.0465 4.11441L15.2295 2.08343ZM15.2295 13.0978L3.87125 7.59063L9.29569 4.96118L20.6539 10.4684L15.2295 13.0978ZM2.89715 8.8194L14.4654 14.4285V28.6453L2.89715 23.0363V8.8194ZM15.9935 28.6453V14.4285L21.4243 11.7927V15.5108C21.4243 15.931 21.7681 16.2748 22.1883 16.2748C22.6085 16.2748 22.9523 15.931 22.9523 15.5108V11.0478L27.6 8.79394V23.0108L15.9935 28.6453Z" fill="#F8F8FF"/>
</g>
<defs>
<clipPath id="clip0_211_3615">
<rect width="30.1654" height="30.1654" fill="white" transform="translate(0.171875 0.472656)"/>
</clipPath>
</defs>
</svg>
