<svg width="33" height="32" viewBox="0 0 33 32" fill="none" xmlns="http://www.w3.org/2000/svg">
<mask id="mask0_211_3553" style="mask-type:alpha" maskUnits="userSpaceOnUse" x="0" y="0" width="33" height="32">
<rect x="0.867188" y="0.214844" width="31.2894" height="31.2894" fill="#D9D9D9"/>
</mask>
<g mask="url(#mask0_211_3553)">
<path d="M16.3228 14.6605C14.9013 14.6605 13.7382 14.2297 12.8336 13.3681C11.929 12.5066 11.4767 11.3989 11.4767 10.0451C11.4767 8.69123 11.929 7.58353 12.8336 6.722C13.7382 5.86046 14.9013 5.42969 16.3228 5.42969C17.7444 5.42969 18.9075 5.86046 19.8121 6.722C20.7167 7.58353 21.169 8.69123 21.169 10.0451C21.169 11.3989 20.7167 12.5066 19.8121 13.3681C18.9075 14.2297 17.7444 14.6605 16.3228 14.6605ZM5.98438 24.5374V21.6451C5.98438 20.8656 6.18899 20.1989 6.59822 19.6451C7.00745 19.0912 7.53514 18.6707 8.1813 18.3835C9.62438 17.7681 11.0082 17.3066 12.3328 16.9989C13.6575 16.6912 14.9875 16.5374 16.3228 16.5374C17.6582 16.5374 18.9828 16.6964 20.2967 17.0143C21.6105 17.3323 22.9881 17.7906 24.4295 18.3894C25.1036 18.6792 25.6441 19.0994 26.051 19.65C26.4579 20.2006 26.6613 20.8656 26.6613 21.6451V24.5374H5.98438ZM7.92284 22.6912H24.7228V21.6451C24.7228 21.3169 24.6205 21.004 24.4159 20.7066C24.2113 20.4092 23.9582 20.1887 23.6567 20.0451C22.2782 19.4092 21.0182 18.9733 19.8767 18.7374C18.7351 18.5015 17.5505 18.3835 16.3228 18.3835C15.0951 18.3835 13.8998 18.5015 12.7367 18.7374C11.5736 18.9733 10.3136 19.4092 8.95668 20.0451C8.65514 20.1887 8.40745 20.4092 8.21361 20.7066C8.01976 21.004 7.92284 21.3169 7.92284 21.6451V22.6912ZM16.3228 12.8143C17.1628 12.8143 17.8575 12.5528 18.4067 12.0297C18.9559 11.5066 19.2305 10.8451 19.2305 10.0451C19.2305 9.24507 18.9559 8.58353 18.4067 8.06046C17.8575 7.53738 17.1628 7.27584 16.3228 7.27584C15.4828 7.27584 14.7882 7.53738 14.239 8.06046C13.6898 8.58353 13.4151 9.24507 13.4151 10.0451C13.4151 10.8451 13.6898 11.5066 14.239 12.0297C14.7882 12.5528 15.4828 12.8143 16.3228 12.8143Z" fill="#F4F4F4"/>
</g>
</svg>
