<svg width="31" height="31" viewBox="0 0 31 31" fill="none" xmlns="http://www.w3.org/2000/svg">
<g clip-path="url(#clip0_211_3603)">
<path d="M27.7533 26.6169L26.0174 7.05398C25.9862 6.66684 25.6615 6.37337 25.2681 6.37337H21.609C21.6028 3.12017 18.9553 0.472656 15.7021 0.472656C12.4489 0.472656 9.80136 3.12017 9.79511 6.37337H6.13605C5.74891 6.37337 5.42421 6.66684 5.38675 7.05398L3.65088 26.6169C3.65088 26.6418 3.65088 26.6606 3.65088 26.6856C3.65088 28.8648 5.65525 30.6381 8.11544 30.6381H23.2887C25.7489 30.6381 27.7533 28.8648 27.7533 26.6856C27.7533 26.6606 27.7533 26.6418 27.7533 26.6169ZM15.7021 1.97125C18.131 1.97125 20.1042 3.9444 20.1104 6.37337H11.2937C11.3 3.9444 13.2731 1.97125 15.7021 1.97125ZM23.2887 29.1333H8.11544C6.49196 29.1333 5.16821 28.053 5.14947 26.7105L6.8229 7.87196H9.79511V10.5007C9.79511 10.9129 10.1323 11.25 10.5444 11.25C10.9565 11.25 11.2937 10.9129 11.2937 10.5007V7.87196H20.1104V10.5007C20.1104 10.9129 20.4476 11.25 20.8597 11.25C21.2718 11.25 21.609 10.9129 21.609 10.5007V7.87196H24.5812L26.2547 26.7168C26.2359 28.053 24.9122 29.1333 23.2887 29.1333Z" fill="#F8F8FF"/>
<path d="M18.818 16.0709L14.3972 20.4917L12.5926 18.6872C12.2992 18.3937 11.8246 18.3937 11.5311 18.6872C11.2377 18.9807 11.2377 19.4552 11.5311 19.7487L13.8664 22.084C14.0101 22.2276 14.2036 22.3026 14.3972 22.3026C14.5908 22.3026 14.7781 22.2276 14.9279 22.084L19.8795 17.1324C20.173 16.8389 20.173 16.3644 19.8795 16.0709C19.5861 15.7837 19.1115 15.7837 18.818 16.0709Z" fill="#F8F8FF"/>
</g>
<defs>
<clipPath id="clip0_211_3603">
<rect width="30.1654" height="30.1654" fill="white" transform="translate(0.619629 0.472656)"/>
</clipPath>
</defs>
</svg>
